<svg width="100" height="101" viewBox="0 0 100 101" fill="none" xmlns="http://www.w3.org/2000/svg">
<path d="M50.9788 0C53.6649 0.516273 55.6627 2.11248 57.441 4.07781C58.1618 4.87342 58.9823 5.57425 59.7056 6.36737C60.5735 7.3201 61.5637 7.54706 62.7882 7.18293C64.4992 6.67164 66.2326 6.23518 67.961 5.78375C72.9865 4.46938 77.5232 7.09314 78.895 12.1087C79.3589 13.7997 79.8327 15.4907 80.2493 17.1941C80.5286 18.3339 81.207 18.9799 82.3268 19.2642C84.12 19.7181 85.9083 20.2045 87.6916 20.6958C92.6548 22.0675 95.2486 26.5594 93.9667 31.5675C93.5327 33.2659 93.0862 34.9644 92.5999 36.6504C92.2682 37.8026 92.5101 38.7329 93.3805 39.5684C94.7199 40.8529 96.0218 42.1723 97.3187 43.4991C100.86 47.1155 100.9 52.2483 97.3985 55.9221C96.1415 57.2414 94.8446 58.5209 93.5327 59.7879C92.6972 60.5935 92.4428 61.4913 92.767 62.6162C93.2808 64.3944 93.7447 66.1877 94.2111 67.9809C95.5055 72.9516 92.8917 77.5033 87.9485 78.8775C86.2275 79.3564 84.5016 79.8228 82.7683 80.2542C81.6759 80.5261 81.0274 81.1646 80.7481 82.257C80.2842 84.0826 79.7904 85.9008 79.2865 87.7165C77.9223 92.6248 73.418 95.2411 68.4872 93.9866C66.8187 93.5626 65.1452 93.1511 63.5016 92.6423C62.1897 92.2383 61.1846 92.5425 60.2593 93.5352C59.0397 94.8421 57.7527 96.0891 56.4708 97.3411C52.8544 100.873 47.6866 100.893 44.0503 97.381C42.7858 96.1614 41.5263 94.9319 40.3266 93.6499C39.4188 92.6797 38.4237 92.4353 37.1592 92.8194C35.4832 93.3307 33.7772 93.7497 32.0788 94.1936C26.9908 95.5255 22.4666 92.9042 21.0899 87.8287C20.6384 86.1677 20.1546 84.5141 19.7555 82.8381C19.4737 81.6534 18.7729 80.9975 17.6181 80.7082C15.8224 80.2567 14.0341 79.7779 12.2484 79.2816C7.34754 77.9173 4.74622 73.4055 6.01321 68.4648C6.44967 66.7663 6.88863 65.0654 7.37996 63.3843C7.72913 62.1922 7.4872 61.2295 6.57188 60.384C5.78375 59.6557 5.07544 58.8401 4.28232 58.1194C2.28457 56.2987 0.578625 54.3009 0 51.5575C0 50.712 0 49.864 0 49.0185C0.518767 46.2925 2.16735 44.2897 4.14764 42.489C4.91582 41.7882 5.59919 40.9926 6.36737 40.2942C7.3201 39.4288 7.55205 38.4386 7.18542 37.214C6.67414 35.5031 6.23767 33.7722 5.78375 32.0438C4.46938 27.0183 7.08815 22.4741 12.0913 21.1048C13.7498 20.6509 15.4059 20.1745 17.0794 19.783C18.3414 19.4862 19.0073 18.7305 19.3141 17.5034C19.8079 15.5181 20.2993 13.5303 20.9203 11.5825C22.2297 7.47972 26.4546 4.98316 30.6721 5.84361C32.7372 6.26511 34.7649 6.87117 36.8 7.42485C37.85 7.71167 38.713 7.47473 39.4637 6.70406C40.2593 5.8885 41.1048 5.12282 41.8705 4.28232C43.6887 2.28457 45.6864 0.581119 48.4274 0.00249413C49.2854 5.71405e-08 50.1308 0 50.9788 0ZM50.2381 93.9816C50.9614 93.5427 51.6622 93.2558 52.1785 92.7745C53.63 91.4202 54.9793 89.9612 56.4184 88.5919C58.3962 86.7089 60.778 85.8235 63.4791 86.3049C65.6789 86.6989 67.8288 87.3723 70.0036 87.916C71.6746 88.335 72.7945 87.6991 73.2634 86.038C73.7846 84.1924 74.266 82.3368 74.7773 80.4912C75.6751 77.2314 77.7901 75.1763 81.0174 74.256C82.7358 73.7672 84.4717 73.3382 86.1926 72.8618C87.9834 72.368 88.6169 71.2706 88.1505 69.4774C87.6766 67.6542 87.1778 65.836 86.7039 64.0128C85.8509 60.7406 86.6565 57.9049 89.0034 55.4981C90.253 54.2161 91.5399 52.9716 92.7944 51.6946C94.0839 50.3827 94.0789 49.0958 92.782 47.7814C91.4102 46.3922 89.9936 45.0454 88.6518 43.6288C86.4794 41.3318 85.7212 38.6182 86.477 35.5305C86.9259 33.6999 87.4422 31.8867 87.911 30.0635C88.3625 28.3177 87.7439 27.2128 86.028 26.729C84.2148 26.2177 82.3917 25.7388 80.5735 25.2425C77.2364 24.3347 75.1439 22.1823 74.2361 18.8652C73.7722 17.1742 73.3332 15.4732 72.8668 13.7822C72.3755 12.004 71.2756 11.3829 69.4674 11.8543C67.6442 12.3307 65.826 12.827 64.0029 13.2984C60.7281 14.1464 57.8949 13.3258 55.4931 10.9789C54.2585 9.77427 53.0539 8.5397 51.8293 7.32509C50.3703 5.87853 49.1507 5.87104 47.7091 7.30015C46.3473 8.65193 45.0155 10.0386 43.6263 11.363C41.6236 13.271 39.2193 14.1738 36.4808 13.675C34.281 13.2759 32.1311 12.6001 29.9588 12.0563C28.3451 11.6523 27.2103 12.2933 26.7564 13.8945C26.2326 15.7376 25.7513 17.5932 25.245 19.4438C24.3322 22.7833 22.1698 24.8609 18.8502 25.7663C17.1567 26.2277 15.4583 26.6666 13.7673 27.1355C12.0364 27.6144 11.3904 28.7292 11.8394 30.4576C12.3132 32.2808 12.8145 34.099 13.2934 35.9196C14.1613 39.2268 13.3533 42.0924 10.9739 44.5217C9.74434 45.7762 8.48483 47.0033 7.25027 48.2528C5.91095 49.6071 5.91344 50.8741 7.25775 52.2358C8.62949 53.625 10.0436 54.9743 11.3879 56.3885C13.2685 58.3638 14.1638 60.7406 13.6925 63.4442C13.3283 65.5168 12.6973 67.5445 12.1661 69.5871C11.5949 71.7744 12.1935 72.8094 14.3958 73.3955C16.0593 73.8395 17.7229 74.2859 19.3864 74.7299C22.7659 75.6352 24.8759 77.8076 25.7837 81.1696C26.2401 82.863 26.6816 84.5615 27.1505 86.2525C27.6268 87.9659 28.7542 88.6019 30.49 88.1505C32.2508 87.6916 34.0042 87.2077 35.7625 86.7363C39.1719 85.8235 42.1224 86.6216 44.6214 89.1082C45.866 90.3478 47.0781 91.6272 48.365 92.8194C48.8614 93.2783 49.5298 93.5526 50.2381 93.9816Z" fill="#FCBB3B"/>
<path d="M21.8506 49.976C21.8605 34.4005 34.498 21.798 50.061 21.8429C65.6066 21.8878 78.1567 34.4704 78.1492 50.0059C78.1418 65.5739 65.4918 78.1865 49.9363 78.1416C34.3957 78.0967 21.8406 65.5066 21.8506 49.976ZM49.9388 71.8889C62.0974 71.8964 71.8692 62.1795 71.9016 50.0508C71.934 37.9247 62.1597 28.1005 50.061 28.093C37.88 28.0856 28.1157 37.8399 28.1007 50.0334C28.0832 62.0773 37.8775 71.879 49.9388 71.8889Z" fill="#FCBB3B"/>
<path d="M44.6763 54.1962C47.4921 51.727 50.2281 49.3277 52.9641 46.9285C55.947 44.3122 58.9125 41.6709 61.9228 39.0846C63.8233 37.451 66.5194 38.2765 67.093 40.6309C67.4197 41.9777 66.891 43.0352 65.8834 43.9181C61.5512 47.7116 57.224 51.5101 52.8968 55.3085C50.8915 57.0669 48.8888 58.8302 46.8811 60.586C44.9681 62.2545 43.2971 62.1548 41.656 60.2618C38.9724 57.1641 36.2937 54.0615 33.6251 50.9514C32.7871 49.9762 32.5975 48.8514 33.0988 47.6717C33.5652 46.5693 34.4406 45.9258 35.6403 45.8011C36.8374 45.6789 37.7677 46.1777 38.5409 47.0831C40.5386 49.4275 42.5663 51.757 44.6763 54.1962Z" fill="#FCBB3B"/>
</svg>
