<svg width="100" height="70" viewBox="0 0 100 70" fill="none" xmlns="http://www.w3.org/2000/svg">
<path d="M0 4.1255C0.611351 2.18874 1.68488 0.679921 3.7757 0.173722C4.3357 0.039225 4.93238 0.00743471 5.51439 0.00743471C24.6179 9.84988e-05 43.7214 -0.00234608 62.8273 0.00254472C66.3022 0.00254472 68.327 2.04446 68.3368 5.53405C68.3442 8.2998 68.3393 11.068 68.3393 13.8338C68.3393 14.1834 68.3393 14.5331 68.3393 14.9929C68.7892 14.9929 69.1389 14.9929 69.4886 14.9929C73.9466 14.9929 78.407 15.0271 82.865 14.9782C84.8702 14.9562 86.4182 15.6849 87.7289 17.1864C91.2405 21.2066 94.7912 25.1902 98.3542 29.164C99.4766 30.416 100.007 31.8173 99.9999 33.507C99.9681 40.4715 99.9901 47.4385 99.9853 54.4055C99.9828 57.9537 97.9605 59.9761 94.4146 59.981C92.5928 59.9834 90.7685 59.9957 88.9467 59.9712C88.4136 59.9639 88.1691 60.0764 88.0419 60.6755C86.8388 66.2412 82.0213 70.0512 76.3724 69.9558C70.8898 69.8629 66.2656 65.872 65.1896 60.3111C65.1774 60.2475 65.148 60.1888 65.0991 60.0543C55.0583 60.0543 44.9906 60.0543 34.8764 60.0543C34.3799 62.688 33.1915 64.9329 31.2792 66.8232C26.4984 71.5478 17.7659 70.8043 14.0317 65.219C13.0951 63.8203 12.6207 62.1158 11.8944 60.5703C11.7771 60.3233 11.4592 60.025 11.2146 60.0079C10.3074 59.9394 9.3928 59.9957 8.48311 59.9761C5.49482 59.9174 3.40156 57.851 3.33553 54.8579C3.3013 53.2708 3.3282 51.6837 3.3282 50.0184C2.03213 50.0013 0.728731 50.1676 0 48.8471C0 33.9423 0 19.0327 0 4.1255ZM65.0086 46.612C65.0086 46.1693 65.0086 45.8465 65.0086 45.5237C65.0086 32.2794 65.0086 19.0376 65.0086 5.79326C65.0086 3.82227 64.5098 3.33074 62.5192 3.33074C43.6162 3.33074 24.7133 3.33074 5.81273 3.33074C3.81483 3.33074 3.33064 3.81004 3.33064 5.79571C3.33064 19.04 3.33064 32.2819 3.33064 45.5262C3.33064 45.8734 3.33064 46.2207 3.33064 46.6144C23.9234 46.612 44.4037 46.612 65.0086 46.612ZM68.3809 46.6658C71.1637 46.6658 73.8292 46.6413 76.4922 46.6706C82.239 46.7318 86.7752 50.3803 88.0443 55.9827C88.1837 56.5941 88.4576 56.6699 88.9712 56.665C90.7612 56.6454 92.5488 56.6601 94.3388 56.6577C96.1068 56.6528 96.6595 56.0977 96.6595 54.3076C96.6619 49.8815 96.6595 45.4577 96.6595 41.0315C96.6595 40.7161 96.6595 40.4006 96.6595 39.9971C96.1582 39.9971 95.7743 39.9971 95.3903 39.9971C90.4457 39.9971 85.5011 40.0094 80.5565 39.9922C77.0107 39.98 74.9957 37.943 74.9908 34.4069C74.9859 29.4281 74.9908 24.4493 74.9908 19.4729C74.9908 19.1256 74.9908 18.7759 74.9908 18.4018C72.7263 18.4018 70.5695 18.4018 68.3809 18.4018C68.3809 27.8264 68.3809 37.1825 68.3809 46.6658ZM78.3165 18.3675C78.3165 18.8224 78.3165 19.1452 78.3165 19.468C78.3165 24.3783 78.3165 29.2912 78.3165 34.2015C78.3165 36.131 78.8252 36.6543 80.7228 36.6543C85.6992 36.6592 90.6731 36.6567 95.6496 36.6543C95.9675 36.6543 96.2829 36.6274 96.6595 36.6103C96.6595 35.4511 96.7353 34.3727 96.6302 33.3138C96.569 32.7074 96.3563 32.008 95.9675 31.5605C92.3336 27.3935 88.6581 23.2657 84.9631 19.1525C84.6403 18.793 84.117 18.4238 83.6695 18.4018C81.9284 18.3162 80.1775 18.3675 78.3165 18.3675ZM76.6268 50.0086C72.0563 50.0257 68.3222 53.7868 68.3442 58.345C68.3662 62.9081 72.137 66.6545 76.6854 66.63C81.2559 66.6056 84.9803 62.8519 84.9656 58.2863C84.9485 53.7159 81.1972 49.9915 76.6268 50.0086ZM15.027 58.2056C14.9536 62.7663 18.6413 66.5567 23.2191 66.63C27.77 66.701 31.5555 63.0157 31.6411 58.4282C31.7267 53.8846 28.0219 50.082 23.4416 50.0111C18.8712 49.9402 15.1004 53.6156 15.027 58.2056ZM54.9458 56.621C54.9458 54.3712 54.9458 52.2364 54.9458 50.0575C51.0674 50.0575 47.2477 50.0575 43.4059 50.0575C43.4059 52.2731 43.4059 54.4324 43.4059 56.621C47.2721 56.621 51.0698 56.621 54.9458 56.621ZM58.3816 56.6577C60.377 56.6577 62.2576 56.6161 64.1332 56.6772C64.8937 56.7017 65.2141 56.4865 65.3559 55.7284C65.7105 53.8406 66.5933 52.1924 67.8502 50.7422C68.0214 50.5466 68.1583 50.3192 68.3393 50.0698C64.9426 50.0698 61.678 50.0698 58.3816 50.0698C58.3816 52.2706 58.3816 54.403 58.3816 56.6577ZM39.9579 50.0771C37.175 50.0771 34.446 50.0771 31.5628 50.0771C33.2771 51.9136 34.3384 53.9188 34.7859 56.242C34.8152 56.4009 35.0671 56.6308 35.2212 56.6332C36.7984 56.6626 38.3757 56.6503 39.9579 56.6503C39.9579 54.3712 39.9579 52.2388 39.9579 50.0771ZM6.68818 50.0502C6.68818 51.7766 6.62949 53.4591 6.71019 55.1342C6.75665 56.0781 7.43648 56.599 8.43909 56.6455C9.31455 56.6846 10.1949 56.6259 11.0679 56.6675C11.6303 56.6944 11.8529 56.5085 11.9629 55.9412C12.3615 53.8919 13.2883 52.0921 14.692 50.5393C14.8069 50.4121 14.8803 50.2483 15.005 50.0502C12.1903 50.0502 9.47594 50.0502 6.68818 50.0502Z" fill="#FCBB3B"/>
<path d="M78.6561 53.3367C81.439 53.344 83.6618 55.6036 83.6349 58.3962C83.6056 61.1155 81.3363 63.3311 78.6048 63.3066C75.8806 63.2821 73.6577 61.0226 73.6699 58.2935C73.6821 55.5644 75.9295 53.3294 78.6561 53.3367ZM80.3019 58.2813C80.2823 57.4205 79.5267 56.6771 78.6683 56.6698C77.7733 56.6624 76.981 57.4621 77.003 58.3522C77.0226 59.2032 77.7978 59.9662 78.6414 59.9711C79.5389 59.976 80.3239 59.1788 80.3019 58.2813Z" fill="#FCBB3B"/>
<path d="M20.3503 58.2765C20.3674 55.5449 22.6148 53.3221 25.3463 53.3367C28.1243 53.3514 30.3545 55.6305 30.3153 58.411C30.2762 61.1278 27.9947 63.336 25.2656 63.3042C22.539 63.2724 20.3332 61.0153 20.3503 58.2765ZM26.9823 58.3523C27.0067 57.5013 26.278 56.7212 25.4148 56.6723C24.5173 56.6234 23.7054 57.3765 23.6834 58.2789C23.6638 59.1372 24.3828 59.9149 25.2436 59.9638C26.1264 60.0151 26.9578 59.2448 26.9823 58.3523Z" fill="#FCBB3B"/>
</svg>
